<?xml version="1.0" encoding="UTF-8"?>
<!DOCTYPE svg PUBLIC "-//W3C//DTD SVG 1.0//EN" "http://www.w3.org/TR/2001/REC-SVG-20010904/DTD/svg10.dtd">
<!-- Creator: CorelDRAW -->
<svg xmlns="http://www.w3.org/2000/svg" xml:space="preserve" width="91.7317mm" height="17.884mm" version="1.0" style="shape-rendering:geometricPrecision; text-rendering:geometricPrecision; image-rendering:optimizeQuality; fill-rule:evenodd; clip-rule:evenodd"
viewBox="0 0 9024.51 1759.42"
 xmlns:xlink="http://www.w3.org/1999/xlink"
 xmlns:xodm="http://www.corel.com/coreldraw/odm/2003">
 <defs>
  <style type="text/css">
   <![CDATA[
    .fil1 {fill:#3A99F2}
    .fil0 {fill:#0C2340;fill-rule:nonzero}
   ]]>
  </style>
 </defs>
 <g id="Layer_x0020_1">
  <metadata id="CorelCorpID_0Corel-Layer"/>
  <path class="fil0" d="M2152.46 890.15l0 441.94 -181.36 0 0 -822.25 181.36 0 0 123.25c22.3,-44.61 57.52,-79.23 105.64,-103.89 48.13,-24.64 96.85,-36.97 146.14,-36.97 99.79,0 176.96,31.12 231.55,93.31 54.57,62.22 81.86,151.43 81.86,267.63l0 478.92 -181.35 0 0 -457.79c0,-64.55 -15.55,-114.74 -46.65,-150.54 -31.11,-35.81 -73.08,-53.7 -125.91,-53.7 -59.85,0 -110.04,17.89 -150.54,53.7 -40.49,35.8 -60.74,91.28 -60.74,166.39zm6697.74 -691.96l0 311.65 174.31 0 0 149.66 -174.31 0 0 672.59 -181.35 0 0 -672.59 -147.89 0 0 -149.66 147.89 0 0 -311.65 181.35 0zm-964.37 691.96l0 441.94 -181.35 0 0 -822.25 181.35 0 0 123.25c22.31,-44.61 57.52,-79.23 105.64,-103.89 48.14,-24.64 96.85,-36.97 146.14,-36.97 99.79,0 176.96,31.12 231.55,93.31 54.57,62.22 81.87,151.43 81.87,267.63l0 478.92 -181.36 0 0 -457.79c0,-64.55 -15.55,-114.74 -46.65,-150.54 -31.11,-35.81 -73.08,-53.7 -125.91,-53.7 -59.85,0 -110.04,17.89 -150.54,53.7 -40.48,35.8 -60.74,91.28 -60.74,166.39zm-342.83 441.94l0 -822.25 -179.6 0 0 822.25 179.6 0zm-176.08 -1074.05c-23.48,-22.3 -35.22,-49.29 -35.22,-80.99 0,-31.7 12.03,-58.7 36.11,-81.01 24.06,-22.29 52.52,-33.44 85.4,-33.44 34.03,0 62.49,10.86 85.38,32.56 22.89,21.71 34.34,49.01 34.34,81.88 0,32.87 -11.45,60.15 -34.34,81.86 -22.89,21.72 -51.35,32.58 -85.38,32.58 -32.88,0 -61.63,-11.16 -86.29,-33.46zm-535.13 915.59c70.42,0 129.7,-23.48 177.82,-70.42 48.14,-46.97 72.2,-108.59 72.2,-184.88 0,-73.96 -24.06,-133.82 -72.2,-179.6 -48.12,-45.79 -107.4,-68.66 -177.82,-68.66 -69.26,0 -127.96,22.87 -176.08,68.66 -48.13,45.79 -72.19,105.64 -72.19,179.6 0,75.11 24.06,136.45 72.19,184 48.12,47.53 106.82,71.31 176.08,71.31zm304.61 56.34c-83.36,79.82 -184.88,119.73 -304.61,119.73 -119.74,0 -220.98,-40.21 -303.73,-120.6 -82.77,-80.42 -124.14,-184 -124.14,-310.77 0,-126.77 41.38,-229.49 124.14,-308.13 82.75,-78.65 183.99,-117.97 303.73,-117.97 120.9,0 223.02,39.31 306.35,117.97 83.35,78.64 125.03,181.36 125.03,308.13 0,126.77 -42.26,230.65 -126.77,311.65zm-1499.44 -720.14l0 121.49c24.65,-43.43 62.5,-77.47 113.56,-102.13 51.07,-24.64 104.76,-36.97 161.12,-36.97 113.85,0 210.41,39.9 289.64,119.73 79.23,79.82 118.84,183.12 118.84,309.9 0,127.94 -39.61,231.23 -118.84,309.89 -79.22,78.64 -175.78,117.97 -289.64,117.97 -58.7,0 -112.98,-11.74 -162.88,-35.21 -49.89,-23.48 -87.14,-56.92 -111.8,-100.37l0 517.65 -181.36 0 0 -1221.94 181.36 0zm1.76 415.53c0,76.29 24.95,137.04 74.82,182.24 49.9,45.19 108.31,67.78 175.2,67.78 70.43,0 129.11,-23.19 176.07,-69.54 46.97,-46.37 70.44,-106.54 70.44,-180.48 0,-75.13 -23.77,-136.75 -71.32,-184.88 -47.55,-48.13 -105.93,-72.18 -175.19,-72.18 -69.25,0 -128.24,23.46 -176.96,70.42 -48.7,46.96 -73.06,109.16 -73.06,186.65zm-915.32 -35.22l0 441.94 -181.36 0 0 -1269.48 181.36 0 0 572.23c21.13,-45.79 57.52,-81 109.16,-105.65 51.65,-24.64 102.12,-36.97 151.43,-36.97 104.46,0 186.06,32.58 244.73,97.72 58.7,65.16 88.05,156.41 88.05,273.79l0 468.35 -181.36 0 0 -457.79c0,-62.21 -17.31,-111.8 -51.94,-148.78 -34.62,-36.98 -78.35,-55.46 -131.17,-55.46 -61.03,0 -114.44,18.18 -160.23,54.57 -45.77,36.39 -68.66,91.57 -68.66,165.51zm-679.14 86.27c-85.7,-23.46 -146.44,-56.92 -182.25,-100.36 -35.8,-43.43 -50.76,-99.19 -44.9,-167.27 4.69,-61.02 35.81,-112.39 93.33,-154.06 57.5,-41.66 124.42,-62.5 200.71,-62.5 81,0 149.95,19.96 206.89,59.86 56.93,39.91 87.73,100.96 92.43,183.11l-172.54 0c-3.52,-29.35 -16.72,-51.35 -39.62,-66.01 -22.89,-14.68 -49.6,-22.02 -80.12,-22.02 -23.48,0 -46.65,4.11 -69.54,12.33 -22.89,8.21 -38.45,19.35 -46.66,33.44 -14.09,23.48 -16.44,48.14 -7.04,73.96 8.21,25.82 41.67,46.96 100.36,63.38l126.78 31.7c143.21,35.22 214.8,115.04 214.8,239.48 0,77.46 -30.52,138.21 -91.55,182.22 -61.04,44.02 -139.68,66.03 -235.94,66.03 -82.17,0 -154.95,-24.36 -218.32,-73.08 -63.4,-48.7 -95.66,-114.15 -96.83,-196.31l167.25 0c4.69,36.37 21.13,65.14 49.31,86.27 28.18,21.13 65.74,31.7 112.68,31.7 42.26,0 77.19,-8.8 104.77,-26.41 27.57,-17.61 41.37,-41.67 41.37,-72.18 0,-46.97 -38.14,-79.24 -114.44,-96.85l-110.92 -26.41zm-533.01 355.67l0 -117.97c-25.82,42.26 -64.85,75.42 -117.08,99.48 -52.24,24.06 -105.36,36.1 -159.35,36.1 -115.04,0 -213.36,-39.91 -294.92,-119.73 -81.6,-79.83 -122.38,-183.11 -122.38,-309.89 0,-126.77 40.79,-229.78 122.38,-309.01 81.57,-79.24 179.88,-118.85 294.92,-118.85 53.98,0 106.81,11.45 158.46,34.32 51.64,22.89 90.97,56.06 117.97,99.49l0 -116.21 179.6 0 0 822.25 -179.6 0zm-434.9 -593.37c-48.14,45.79 -72.2,105.64 -72.2,179.6 0,73.94 24.36,134.99 73.08,183.12 48.71,48.11 108.29,72.18 178.73,72.18 70.42,0 130.28,-23.19 179.58,-69.54 49.31,-46.37 73.95,-108.3 73.95,-185.76 0,-76.3 -25.53,-137.04 -76.6,-182.24 -51.05,-45.2 -110.04,-67.78 -176.94,-67.78 -70.44,0 -130.31,23.46 -179.6,70.42z"/>
  <path class="fil1" d="M293.28 792.46c45.23,-12.13 85.43,-37.33 115.59,-71.65 8.9,-10.12 23.54,-28.74 27.92,-40.75l-200.9 4.92c-64.65,1.58 -119.02,-50.17 -120.56,-114.84 -1.55,-64.64 50.19,-118.94 114.83,-120.52l201.12 -4.9c-53.39,-86.52 -157.65,-129.55 -258.55,-102.57 -59.93,16.05 -110.44,55.13 -141.43,108.83 -30.8,53.38 -39.37,117.04 -23.42,176.6 11.87,44.33 36.36,83.55 70.09,113.54 22.73,20.18 48.98,35.88 77.66,45.96 43.97,15.47 92.1,17.59 137.67,5.38zm1012.55 174.52c-45.23,12.12 -85.43,37.33 -115.59,71.65 -8.9,10.11 -23.54,28.74 -27.92,40.75l200.9 -4.93c64.65,-1.58 119.02,50.18 120.56,114.84 1.54,64.64 -50.2,118.95 -114.84,120.53l-201.11 4.9c53.39,86.51 157.65,129.55 258.55,102.56 59.93,-16.05 110.44,-55.12 141.43,-108.83 30.8,-53.38 39.36,-117.03 23.41,-176.6 -11.87,-44.33 -36.35,-83.55 -70.08,-113.54 -22.73,-20.18 -48.99,-35.88 -77.66,-45.95 -43.97,-15.47 -92.1,-17.59 -137.67,-5.38z"/>
  <path class="fil1" d="M470.85 1274.52c12.12,-45.23 10.39,-92.65 -4.26,-135.92 -4.31,-12.77 -13.11,-34.76 -21.33,-44.56l-96.19 176.44c-30.96,56.78 -102.96,77.99 -159.74,47 -56.75,-30.98 -77.91,-102.94 -46.96,-159.72l96.31 -176.61c-101.63,2.98 -191.02,71.76 -218.1,172.63 -16.08,59.92 -7.49,123.21 23.52,176.9 30.83,53.37 81.67,92.61 141.23,108.58 44.33,11.88 90.54,10.29 133.37,-3.92 28.83,-9.59 55.55,-24.5 78.62,-44.28 35.38,-30.35 61.29,-70.97 73.5,-116.54zm657.41 -789.63c-12.12,45.23 -10.39,92.65 4.26,135.92 4.31,12.77 13.11,34.76 21.33,44.56l96.19 -176.45c30.95,-56.77 102.96,-77.99 159.74,-46.99 56.75,30.98 77.91,102.94 46.96,159.71l-96.31 176.62c101.63,-2.98 191.02,-71.76 218.1,-172.63 16.08,-59.93 7.49,-123.21 -23.52,-176.9 -30.83,-53.37 -81.68,-92.61 -141.23,-108.58 -44.33,-11.88 -90.54,-10.29 -133.37,3.92 -28.83,9.59 -55.56,24.49 -78.63,44.28 -35.37,30.34 -61.28,70.97 -73.49,116.54z"/>
  <path class="fil1" d="M977.13 1361.79c-33.11,-33.1 -75.05,-55.32 -119.85,-64.27 -13.21,-2.66 -36.66,-6.02 -49.25,-3.81l104.72 171.52c33.69,55.2 16.06,128.16 -39.16,161.83 -55.21,33.66 -128.11,16 -161.8,-39.19l-104.79 -171.71c-48.24,89.5 -33.37,201.3 40.44,275.19 43.87,43.89 102.96,68.09 164.96,68.08 61.63,-0.02 121.05,-24.44 164.66,-68.03 32.45,-32.45 54.18,-73.26 63.29,-117.46 6.11,-29.77 6.57,-60.37 0.96,-90.23 -8.59,-45.82 -30.81,-88.56 -64.17,-121.92zm-355.14 -964.15c33.11,33.1 75.05,55.32 119.85,64.27 13.21,2.66 36.66,6.02 49.25,3.81l-104.72 -171.52c-33.69,-55.2 -16.06,-128.17 39.16,-161.83 55.21,-33.66 128.11,-16 161.8,39.18l104.79 171.72c48.24,-89.5 33.37,-201.3 -40.44,-275.2 -43.87,-43.88 -102.96,-68.08 -164.96,-68.07 -61.63,0.01 -121.05,24.43 -164.66,68.02 -32.45,32.45 -54.18,73.26 -63.29,117.46 -6.11,29.77 -6.57,60.36 -0.96,90.23 8.59,45.81 30.81,88.56 64.17,121.92z"/>
  <path class="fil1" d="M583.24 633.99c-138.48,97.37 -195.71,208.5 -278.38,349.54l-111.23 202.33c-15.81,28.78 -5.02,64.93 23.75,80.62 28.8,15.72 64.84,5 80.61,-23.72l102.79 -187.03c21.17,-38.52 42.25,-77.08 64.83,-114.79l11.22 -18.7 1.91 22.13c14.39,167.68 83.17,274.52 163.53,415.82l119.6 197.48c16.9,27.9 53.87,36.73 81.68,19.76 27.84,-17 36.64,-53.83 19.76,-81.68l-110.58 -182.53c-22.76,-37.58 -45.75,-75.05 -66.99,-113.5l-10.44 -18.9 19.92 9.2c153.55,71.01 278.45,65.25 441.9,66.34l230.82 -4.85c32.77,-0.69 58.74,-28.15 57.94,-60.85 -0.79,-32.82 -28.08,-58.65 -60.87,-57.97l-213.37 4.51c-43.92,0.92 -87.87,2.02 -131.8,1.25l-21.66 -0.38 18.04 -12.69c138.87,-97.74 195.5,-208.18 278.37,-349.52l111.2 -202.33c15.83,-28.76 5.05,-64.92 -23.71,-80.6 -28.81,-15.73 -64.85,-5 -80.62,23.71l-102.79 187.04c-21.17,38.5 -42.18,77.06 -64.79,114.72l-11.51 19.13 -1.61 -22.54c-14.73,-164.7 -84.09,-276.08 -163.53,-415.78l-119.59 -197.47c-16.89,-27.91 -53.87,-36.72 -81.68,-19.75 -27.83,16.98 -36.65,53.84 -19.77,81.69l110.59 182.52c22.76,37.59 45.68,75.09 66.97,113.52l10.54 19.03 -20.05 -9.4c-151.89,-71.08 -279.73,-65.21 -441.87,-66.29l-230.83 4.86c-32.75,0.68 -58.73,28.13 -57.95,60.85 0.81,32.81 28.11,58.64 60.87,57.96l213.38 -4.5c43.9,-0.93 87.81,-2.19 131.75,-1.27l21.21 0.45 -17.56 12.59zm1.08 245.72c0,-118.97 96.46,-215.43 215.43,-215.43 118.98,0 215.42,96.43 215.42,215.43 0,118.98 -96.44,215.42 -215.42,215.42 -118.97,0 -215.43,-96.46 -215.43,-215.42z"/>
 </g>
</svg>
